<svg width="375" height="795" viewBox="0 0 375 795" fill="none" xmlns="http://www.w3.org/2000/svg">
<mask id="mask0_2_1211" style="mask-type:alpha" maskUnits="userSpaceOnUse" x="0" y="0" width="375" height="795">
<rect width="375" height="795" fill="#343434"/>
</mask>
<g mask="url(#mask0_2_1211)">
<path opacity="0.05" d="M342.721 18.15H310.621V96H287.371V18.15H255.271V-1.50001H342.721V18.15ZM338.229 138.15H285.729V156.75H333.279V175.65H285.729V196.35H339.279V216H262.479V118.5H338.229V138.15ZM348.321 336H319.221C311.021 322.5 303.421 312.15 296.421 304.95H280.821V336H257.571V238.5H303.471C307.571 238.5 311.421 238.8 315.021 239.4C318.621 239.9 322.271 240.9 325.971 242.4C329.671 243.8 332.771 245.7 335.271 248.1C337.871 250.4 339.971 253.55 341.571 257.55C343.271 261.45 344.121 265.95 344.121 271.05C344.121 278.25 341.871 284.55 337.371 289.95C332.971 295.25 327.321 298.7 320.421 300.3C330.121 310.5 339.421 322.4 348.321 336ZM281.271 285.3H299.421C306.221 285.3 311.321 284.2 314.721 282C318.121 279.7 319.821 276.05 319.821 271.05C319.821 262.45 312.871 258.15 298.971 258.15H281.271V285.3ZM348.321 456H319.221C311.021 442.5 303.421 432.15 296.421 424.95H280.821V456H257.571V358.5H303.471C307.571 358.5 311.421 358.8 315.021 359.4C318.621 359.9 322.271 360.9 325.971 362.4C329.671 363.8 332.771 365.7 335.271 368.1C337.871 370.4 339.971 373.55 341.571 377.55C343.271 381.45 344.121 385.95 344.121 391.05C344.121 398.25 341.871 404.55 337.371 409.95C332.971 415.25 327.321 418.7 320.421 420.3C330.121 430.5 339.421 442.4 348.321 456ZM281.271 405.3H299.421C306.221 405.3 311.321 404.2 314.721 402C318.121 399.7 319.821 396.05 319.821 391.05C319.821 382.45 312.871 378.15 298.971 378.15H281.271V405.3ZM326.854 576L321.154 558.3H275.104C274.504 560.2 273.604 563.15 272.404 567.15C271.204 571.05 270.304 574 269.704 576H245.554C256.754 539.5 269.054 507 282.454 478.5H314.854C329.354 509.1 341.904 541.6 352.504 576H326.854ZM281.554 538.65H314.554C309.054 522.95 303.504 508.65 297.904 495.75C292.504 508.15 287.054 522.45 281.554 538.65ZM344.673 696H321.573L276.123 630.3V696H253.323V598.65H280.173L321.873 659.7V598.65H344.673V696ZM280.156 719.7C286.256 717.7 292.556 716.7 299.056 716.7C305.556 716.7 311.806 717.75 317.806 719.85C323.906 721.85 329.506 724.8 334.606 728.7C339.706 732.6 343.806 737.8 346.906 744.3C350.006 750.8 351.556 758.15 351.556 766.35C351.556 775.35 350.106 783.25 347.206 790.05C344.306 796.85 340.306 802.2 335.206 806.1C330.206 810 324.656 812.95 318.556 814.95C312.456 816.85 305.906 817.8 298.906 817.8C291.906 817.8 285.356 816.85 279.256 814.95C273.156 812.95 267.606 810 262.606 806.1C257.606 802.2 253.656 796.85 250.756 790.05C247.856 783.25 246.406 775.35 246.406 766.35C246.406 758.15 247.956 750.8 251.056 744.3C254.156 737.7 258.256 732.45 263.356 728.55C268.456 724.65 274.056 721.7 280.156 719.7ZM319.156 745.2C313.756 740 307.006 737.4 298.906 737.4C290.806 737.4 284.056 740 278.656 745.2C273.356 750.3 270.706 757.4 270.706 766.5C270.706 776.9 273.506 784.65 279.106 789.75C284.706 794.85 291.356 797.4 299.056 797.4C306.756 797.4 313.356 794.85 318.856 789.75C324.456 784.65 327.256 776.9 327.256 766.5C327.256 757.4 324.556 750.3 319.156 745.2ZM280.156 839.7C286.256 837.7 292.556 836.7 299.056 836.7C305.556 836.7 311.806 837.75 317.806 839.85C323.906 841.85 329.506 844.8 334.606 848.7C339.706 852.6 343.806 857.8 346.906 864.3C350.006 870.8 351.556 878.15 351.556 886.35C351.556 895.35 350.106 903.25 347.206 910.05C344.306 916.85 340.306 922.2 335.206 926.1C330.206 930 324.656 932.95 318.556 934.95C312.456 936.85 305.906 937.8 298.906 937.8C291.906 937.8 285.356 936.85 279.256 934.95C273.156 932.95 267.606 930 262.606 926.1C257.606 922.2 253.656 916.85 250.756 910.05C247.856 903.25 246.406 895.35 246.406 886.35C246.406 878.15 247.956 870.8 251.056 864.3C254.156 857.7 258.256 852.45 263.356 848.55C268.456 844.65 274.056 841.7 280.156 839.7ZM319.156 865.2C313.756 860 307.006 857.4 298.906 857.4C290.806 857.4 284.056 860 278.656 865.2C273.356 870.3 270.706 877.4 270.706 886.5C270.706 896.9 273.506 904.65 279.106 909.75C284.706 914.85 291.356 917.4 299.056 917.4C306.756 917.4 313.356 914.85 318.856 909.75C324.456 904.65 327.256 896.9 327.256 886.5C327.256 877.4 324.556 870.3 319.156 865.2Z" fill="#C3002F"/>
</g>
</svg>
