<svg width="375" height="795" viewBox="0 0 375 795" fill="none" xmlns="http://www.w3.org/2000/svg">
<mask id="mask0_2_1198" style="mask-type:alpha" maskUnits="userSpaceOnUse" x="0" y="0" width="375" height="795">
<rect width="375" height="795" fill="#343434"/>
</mask>
<g mask="url(#mask0_2_1198)">
<path opacity="0.05" d="M297.156 -21.3C303.256 -23.3 309.556 -24.3 316.056 -24.3C322.556 -24.3 328.806 -23.25 334.806 -21.15C340.906 -19.15 346.506 -16.2 351.606 -12.3C356.706 -8.40001 360.806 -3.2 363.906 3.3C367.006 9.8 368.556 17.15 368.556 25.35C368.556 42.05 363.556 55 353.556 64.2L366.306 78.75L349.056 93L332.406 75.15C327.306 76.45 321.806 77.1 315.906 77.1C308.906 77.1 302.356 76.15 296.256 74.25C290.156 72.25 284.606 69.25 279.606 65.25C274.606 61.25 270.656 55.85 267.756 49.05C264.856 42.25 263.406 34.35 263.406 25.35C263.406 17.15 264.956 9.8 268.056 3.3C271.156 -3.3 275.256 -8.55 280.356 -12.45C285.456 -16.35 291.056 -19.3 297.156 -21.3ZM336.156 4.2C330.756 -1.00001 324.006 -3.60001 315.906 -3.60001C307.806 -3.60001 301.056 -1.00001 295.656 4.2C290.356 9.3 287.706 16.4 287.706 25.5C287.706 35.9 290.506 43.7 296.106 48.9C301.706 54.1 308.356 56.7 316.056 56.7C323.756 56.7 330.356 54.1 335.856 48.9C341.456 43.7 344.256 35.9 344.256 25.5C344.256 16.4 341.556 9.3 336.156 4.2ZM343.854 195L338.154 177.3H292.104C291.504 179.2 290.604 182.15 289.404 186.15C288.204 190.05 287.304 193 286.704 195H262.554C273.754 158.5 286.054 126 299.454 97.5H331.854C346.354 128.1 358.904 160.6 369.504 195H343.854ZM298.554 157.65H331.554C326.054 141.95 320.504 127.65 314.904 114.75C309.504 127.15 304.054 141.45 298.554 157.65ZM317.607 215.7C326.507 215.7 337.807 217.35 351.507 220.65V241.05C346.107 239.75 342.107 238.85 339.507 238.35C336.907 237.75 333.457 237.2 329.157 236.7C324.857 236.2 320.457 235.95 315.957 235.95C303.757 235.95 297.657 238.85 297.657 244.65C297.657 248.25 301.007 250.95 307.707 252.75L333.357 259.5C349.957 263.8 358.257 272.6 358.257 285.9C358.257 295.8 354.607 303.45 347.307 308.85C340.007 314.15 329.257 316.8 315.057 316.8C302.057 316.8 288.807 315 275.307 311.4V290.25C291.407 294.45 303.707 296.55 312.207 296.55C320.007 296.55 325.607 295.9 329.007 294.6C332.507 293.3 334.257 291.15 334.257 288.15C334.257 283.55 329.857 280.15 321.057 277.95L296.307 271.65C289.107 269.75 283.557 266.5 279.657 261.9C275.757 257.2 273.807 251.55 273.807 244.95C273.807 225.45 288.407 215.7 317.607 215.7ZM360.752 435H337.502V397.2H294.452V435H271.202V337.5H294.452V377.55H337.502V337.5H360.752V435ZM297.156 458.7C303.256 456.7 309.556 455.7 316.056 455.7C322.556 455.7 328.806 456.75 334.806 458.85C340.906 460.85 346.506 463.8 351.606 467.7C356.706 471.6 360.806 476.8 363.906 483.3C367.006 489.8 368.556 497.15 368.556 505.35C368.556 522.05 363.556 535 353.556 544.2L366.306 558.75L349.056 573L332.406 555.15C327.306 556.45 321.806 557.1 315.906 557.1C308.906 557.1 302.356 556.15 296.256 554.25C290.156 552.25 284.606 549.25 279.606 545.25C274.606 541.25 270.656 535.85 267.756 529.05C264.856 522.25 263.406 514.35 263.406 505.35C263.406 497.15 264.956 489.8 268.056 483.3C271.156 476.7 275.256 471.45 280.356 467.55C285.456 463.65 291.056 460.7 297.156 458.7ZM336.156 484.2C330.756 479 324.006 476.4 315.906 476.4C307.806 476.4 301.056 479 295.656 484.2C290.356 489.3 287.706 496.4 287.706 505.5C287.706 515.9 290.506 523.7 296.106 528.9C301.706 534.1 308.356 536.7 316.056 536.7C323.756 536.7 330.356 534.1 335.856 528.9C341.456 523.7 344.256 515.9 344.256 505.5C344.256 496.4 341.556 489.3 336.156 484.2ZM343.854 675L338.154 657.3H292.104C291.504 659.2 290.604 662.15 289.404 666.15C288.204 670.05 287.304 673 286.704 675H262.554C273.754 638.5 286.054 606 299.454 577.5H331.854C346.354 608.1 358.904 640.6 369.504 675H343.854ZM298.554 637.65H331.554C326.054 621.95 320.504 607.65 314.904 594.75C309.504 607.15 304.054 621.45 298.554 637.65ZM327.631 795H304.381V697.5H327.631V795Z" fill="#C3002F"/>
</g>
</svg>
