<svg width="375" height="795" viewBox="0 0 375 795" fill="none" xmlns="http://www.w3.org/2000/svg">
<mask id="mask0_2_1203" style="mask-type:alpha" maskUnits="userSpaceOnUse" x="0" y="0" width="375" height="795">
<rect width="375" height="795" fill="#343434"/>
</mask>
<g mask="url(#mask0_2_1203)">
<path opacity="0.05" d="M337.674 130.95L374.874 180H345.924L322.824 148.05L299.124 180H271.074L308.124 130.95L271.224 82.5H300.924L322.524 114.9L343.974 82.5H373.074L337.674 130.95ZM366.721 222.15H334.621V300H311.371V222.15H279.271V202.5H366.721V222.15ZM372.321 420H343.221C335.021 406.5 327.421 396.15 320.421 388.95H304.821V420H281.571V322.5H327.471C331.571 322.5 335.421 322.8 339.021 323.4C342.621 323.9 346.271 324.9 349.971 326.4C353.671 327.8 356.771 329.7 359.271 332.1C361.871 334.4 363.971 337.55 365.571 341.55C367.271 345.45 368.121 349.95 368.121 355.05C368.121 362.25 365.871 368.55 361.371 373.95C356.971 379.25 351.321 382.7 344.421 384.3C354.121 394.5 363.421 406.4 372.321 420ZM305.271 369.3H323.421C330.221 369.3 335.321 368.2 338.721 366C342.121 363.7 343.821 360.05 343.821 355.05C343.821 346.45 336.871 342.15 322.971 342.15H305.271V369.3ZM350.854 540L345.154 522.3H299.104C298.504 524.2 297.604 527.15 296.404 531.15C295.204 535.05 294.304 538 293.704 540H269.554C280.754 503.5 293.054 471 306.454 442.5H338.854C353.354 473.1 365.904 505.6 376.504 540H350.854ZM305.554 502.65H338.554C333.054 486.95 327.504 472.65 321.904 459.75C316.504 472.15 311.054 486.45 305.554 502.65ZM334.631 660H311.381V562.5H334.631V660ZM316.54 760.35H362.44V780H293.29V682.5H316.54V760.35Z" fill="#C3002F"/>
</g>
</svg>
