<svg width="25" height="26" viewBox="0 0 25 26" fill="none" xmlns="http://www.w3.org/2000/svg">
<path fill-rule="evenodd" clip-rule="evenodd" d="M14.6374 2.91821C14.258 3.26269 13.8711 3.78669 13.5053 4.55927H15.5486H17.1545C17.1675 4.54387 17.181 4.52877 17.1951 4.51398C17.3097 4.39359 17.5118 4.14153 17.6796 3.8383C17.8544 3.52244 17.9357 3.25199 17.9357 3.06775C17.9357 2.76618 17.8556 2.66043 17.7504 2.58303C17.5803 2.45793 17.1594 2.28809 16.226 2.28809C15.6571 2.28809 15.1359 2.46549 14.6374 2.91821ZM12.1615 2.83891C11.8225 2.28275 11.4463 1.81558 11.0301 1.43763C10.1569 0.644583 9.15388 0.288086 8.09695 0.288086C6.99811 0.288086 6.06417 0.474177 5.38746 0.971957C4.64592 1.51743 4.38727 2.30152 4.38727 3.06775C4.38727 3.62211 4.5635 4.14183 4.76517 4.55927H1.32275C0.770469 4.55927 0.322754 5.00699 0.322754 5.55927V11.2542C0.322754 11.8065 0.770469 12.2542 1.32275 12.2542H1.67759V24.0677C1.67759 24.62 2.12531 25.0677 2.67759 25.0677H9.45179H15.5486C16.1008 25.0677 16.5486 24.62 16.5486 24.0677V12.2542H23.6776C24.2299 12.2542 24.6776 11.8065 24.6776 11.2542V5.55927C24.6776 5.00699 24.2299 4.55927 23.6776 4.55927H19.5578C19.7594 4.14183 19.9357 3.62211 19.9357 3.06775C19.9357 2.30152 19.677 1.51743 18.9355 0.971957C18.2588 0.474177 17.3248 0.288086 16.226 0.288086C15.169 0.288086 14.1661 0.644583 13.2928 1.43763C12.8766 1.81558 12.5005 2.28275 12.1615 2.83891ZM7.16841 4.55927C7.15542 4.54387 7.14189 4.52877 7.12781 4.51398C7.01325 4.39359 6.81109 4.14153 6.64332 3.8383C6.46857 3.52244 6.38727 3.25199 6.38727 3.06775C6.38727 2.76618 6.46733 2.66043 6.57256 2.58303C6.74263 2.45793 7.16353 2.28809 8.09695 2.28809C8.66582 2.28809 9.18703 2.46549 9.68555 2.91821C10.0649 3.26269 10.4518 3.78669 10.8176 4.55927H9.45277L9.45179 4.55927H7.16841ZM8.45179 6.55927H2.32275V10.2542L2.67759 10.2542L8.45179 10.2542V6.55927ZM8.45179 12.2542H3.67759V23.0677H8.45179V12.2542ZM10.4518 6.55927L10.4518 11.2542V23.0677H14.5486V11.2542V6.55927H10.4518ZM16.5486 6.55927V10.2542H22.6776V6.55927H16.5486Z" fill="white"/>
</svg>
