<svg width="127" height="700" viewBox="0 0 127 700" fill="none" xmlns="http://www.w3.org/2000/svg">
<path opacity="0.05" d="M79.8383 0.499995H113.438C118.438 26.4 122.788 58.9 126.488 98H103.838C101.338 69.7 98.3383 44.9 94.8383 23.6C86.8383 46.8 80.0383 68.55 74.4383 88.85H52.5383C46.9383 68.55 40.1383 46.8 32.1383 23.6C28.6383 44.9 25.6383 69.7 23.1383 98H0.488281C4.18828 58.9 8.53828 26.4 13.5383 0.499995H47.1383C56.6383 30.7 62.0883 48.95 63.4883 55.25C65.0883 48.15 70.5383 29.9 79.8383 0.499995ZM109.079 120.5V173.3C109.079 204.3 93.7789 219.8 63.1789 219.8C32.9789 219.8 17.8789 204.3 17.8789 173.3V120.5H41.1289V173.45C41.1289 181.95 43.0789 188.35 46.9789 192.65C50.9789 196.95 56.4789 199.1 63.4789 199.1C70.4789 199.1 75.9289 196.95 79.8289 192.65C83.8289 188.35 85.8289 181.95 85.8289 173.45V120.5H109.079ZM112.821 338H83.7213C75.5213 324.5 67.9213 314.15 60.9213 306.95H45.3213V338H22.0713V240.5H67.9713C72.0713 240.5 75.9213 240.8 79.5213 241.4C83.1213 241.9 86.7713 242.9 90.4713 244.4C94.1713 245.8 97.2713 247.7 99.7713 250.1C102.371 252.4 104.471 255.55 106.071 259.55C107.771 263.45 108.621 267.95 108.621 273.05C108.621 280.25 106.371 286.55 101.871 291.95C97.4713 297.25 91.8213 300.7 84.9213 302.3C94.6213 312.5 103.921 324.4 112.821 338ZM45.7713 287.3H63.9213C70.7213 287.3 75.8213 286.2 79.2213 284C82.6213 281.7 84.3213 278.05 84.3213 273.05C84.3213 264.45 77.3713 260.15 63.4713 260.15H45.7713V287.3ZM91.3537 458L85.6537 440.3H39.6037C39.0037 442.2 38.1037 445.15 36.9037 449.15C35.7037 453.05 34.8037 456 34.2037 458H10.0537C21.2537 421.5 33.5537 389 46.9537 360.5H79.3537C93.8537 391.1 106.404 423.6 117.004 458H91.3537ZM46.0537 420.65H79.0537C73.5537 404.95 68.0037 390.65 62.4037 377.75C57.0037 390.15 51.5537 404.45 46.0537 420.65ZM109.173 578H86.0732L40.6232 512.3V578H17.8232V480.65H44.6732L86.3732 541.7V480.65H109.173V578ZM44.6563 601.7C50.7563 599.7 57.0563 598.7 63.5563 598.7C70.0563 598.7 76.3063 599.75 82.3063 601.85C88.4063 603.85 94.0063 606.8 99.1063 610.7C104.206 614.6 108.306 619.8 111.406 626.3C114.506 632.8 116.056 640.15 116.056 648.35C116.056 657.35 114.606 665.25 111.706 672.05C108.806 678.85 104.806 684.2 99.7063 688.1C94.7063 692 89.1563 694.95 83.0563 696.95C76.9563 698.85 70.4063 699.8 63.4063 699.8C56.4063 699.8 49.8563 698.85 43.7563 696.95C37.6563 694.95 32.1063 692 27.1063 688.1C22.1063 684.2 18.1563 678.85 15.2563 672.05C12.3563 665.25 10.9063 657.35 10.9063 648.35C10.9063 640.15 12.4563 632.8 15.5563 626.3C18.6563 619.7 22.7563 614.45 27.8563 610.55C32.9563 606.65 38.5563 603.7 44.6563 601.7ZM83.6563 627.2C78.2563 622 71.5063 619.4 63.4063 619.4C55.3063 619.4 48.5563 622 43.1563 627.2C37.8563 632.3 35.2063 639.4 35.2063 648.5C35.2063 658.9 38.0063 666.65 43.6063 671.75C49.2063 676.85 55.8563 679.4 63.5563 679.4C71.2563 679.4 77.8563 676.85 83.3563 671.75C88.9563 666.65 91.7563 658.9 91.7563 648.5C91.7563 639.4 89.0563 632.3 83.6563 627.2Z" fill="#C3002F"/>
</svg>
