<svg width="23" height="42" viewBox="0 0 23 42" fill="none" xmlns="http://www.w3.org/2000/svg">
<path d="M22.9877 37.5558C23.0493 37.2567 22.7328 36.5811 22.0382 35.53C21.8625 35.2237 21.6062 34.7973 21.2716 34.2509C20.9366 33.7042 20.6346 33.2044 20.3663 32.752C20.0972 32.2992 19.8492 31.8679 19.6214 31.458C19.5899 31.384 19.486 31.1616 19.3101 30.79C19.1337 30.4188 18.9731 30.1261 18.827 29.9114C18.6811 29.6975 18.5105 29.5338 18.3153 29.4211C18.0365 29.2602 17.5735 29.2579 16.9261 29.4136C16.2785 29.5697 15.6456 29.7802 15.0273 30.0465C14.4091 30.3125 13.7902 30.531 13.1708 30.7032C12.5508 30.8753 12.1152 30.8886 11.8645 30.7438C11.7387 30.6712 11.602 30.5455 11.454 30.3677C11.3062 30.1895 11.1977 30.0473 11.1273 29.9425C11.0584 29.8372 10.9477 29.6435 10.7953 29.3597C10.6422 29.0761 10.5563 28.9196 10.5366 28.8896C9.23844 26.727 8.30064 24.5683 7.7227 22.4136C7.14568 20.2582 6.87811 17.92 6.92135 15.3981C6.92354 15.3622 6.91968 15.1833 6.91016 14.8619C6.90055 14.5402 6.89937 14.3168 6.90708 14.1908C6.91458 14.0651 6.93787 13.8879 6.97692 13.6596C7.01597 13.4312 7.07153 13.2543 7.14406 13.1287C7.28885 12.8779 7.67281 12.6718 8.29559 12.5108C8.91817 12.3501 9.56389 12.2301 10.2319 12.1513C10.9002 12.0728 11.5535 11.9387 12.1924 11.75C12.8312 11.5611 13.231 11.3275 13.3919 11.0487C13.5045 10.8536 13.5706 10.6266 13.5897 10.3682C13.6091 10.1094 13.6019 9.77571 13.5688 9.36603C13.5355 8.95646 13.514 8.71193 13.5045 8.63171C13.4967 8.16281 13.4961 7.66528 13.5022 7.13898C13.5082 6.61274 13.5201 6.02915 13.5368 5.38825C13.5535 4.74769 13.5619 4.25048 13.5613 3.89698C13.6369 2.63969 13.5735 1.89641 13.3706 1.66812C13.2971 1.56992 13.1628 1.46425 12.9678 1.35167C12.5912 1.1342 12.0596 0.920099 11.3726 0.709576C10.6855 0.498707 10.1237 0.369294 9.68639 0.321627C8.82032 0.211759 7.59047 0.635555 5.99679 1.59259C4.52928 2.4923 3.42508 3.58388 2.68465 4.86635C2.46749 5.24247 2.28061 5.62249 2.12396 6.00648C1.96752 6.39011 1.82324 6.84131 1.69124 7.36006C1.55911 7.87853 1.46895 8.2683 1.42085 8.52823C1.37273 8.78836 1.29231 9.25768 1.17945 9.93631C1.06637 10.6146 0.994887 11.0285 0.964272 11.1782C0.663342 12.8262 0.537717 14.38 0.587036 15.8399C0.657757 18.26 1.0955 20.9715 1.89981 23.9734C2.70427 26.9751 3.6808 29.5419 4.82962 31.6736C5.51685 32.9624 6.40314 34.2454 7.48744 35.5225C7.58897 35.6366 7.85803 35.959 8.29451 36.4905C8.73155 37.0216 9.03603 37.3879 9.2077 37.5893C9.37939 37.7907 9.65241 38.0833 10.0256 38.4663C10.3998 38.8498 10.75 39.1682 11.0771 39.4226C11.405 39.6761 11.7567 39.9122 12.1329 40.1295C13.4154 40.8699 14.9177 41.263 16.6387 41.3087C18.4971 41.341 19.774 41.0929 20.4696 40.5643C20.8246 40.305 21.2461 39.9117 21.7357 39.3856C22.2256 38.86 22.5787 38.4088 22.7961 38.0323C22.9096 37.8367 22.9729 37.6785 22.9877 37.5558Z" fill="#C3002F"/>
</svg>
