<svg width="334" height="43" viewBox="0 0 334 43" fill="none" xmlns="http://www.w3.org/2000/svg">
<rect width="334" height="43" fill="#C3002F"/>
<path d="M110.553 16.9618C112.004 16.9618 113.103 17.2018 113.849 17.6818C114.607 18.1618 114.985 18.8285 114.985 19.6818C114.985 20.8125 114.377 21.6018 113.161 22.0498V22.0978C113.876 22.2365 114.436 22.5138 114.841 22.9298C115.247 23.3458 115.449 23.8472 115.449 24.4338C115.449 26.6418 113.764 27.7458 110.393 27.7458C109.348 27.7458 108.244 27.6232 107.081 27.3778V25.0418C108.297 25.3938 109.428 25.5698 110.473 25.5698C111.327 25.5698 111.935 25.4632 112.297 25.2498C112.671 25.0365 112.857 24.7112 112.857 24.2738C112.857 23.8898 112.697 23.6072 112.377 23.4258C112.057 23.2445 111.519 23.1538 110.761 23.1538H108.505V21.3778H110.441C111.167 21.3778 111.673 21.2818 111.961 21.0898C112.249 20.8978 112.393 20.6098 112.393 20.2258C112.393 19.8632 112.233 19.5912 111.913 19.4098C111.604 19.2285 111.06 19.1378 110.281 19.1378C109.204 19.1378 108.175 19.2978 107.193 19.6178V17.4098C108.164 17.1112 109.284 16.9618 110.553 16.9618ZM124.541 27.5538L123.933 25.6658H119.021C118.957 25.8685 118.861 26.1832 118.733 26.6098C118.605 27.0258 118.509 27.3405 118.445 27.5538H115.869C117.064 23.6605 118.376 20.1938 119.805 17.1538H123.261C124.808 20.4178 126.147 23.8845 127.277 27.5538H124.541ZM119.709 23.5698H123.229C122.643 21.8952 122.051 20.3698 121.453 18.9938C120.877 20.3165 120.296 21.8418 119.709 23.5698ZM138.135 27.5538H135.015C134.087 26.2525 132.989 24.9085 131.719 23.5218H130.631V27.5538H128.151V17.1538H130.631V21.4418H131.575C132.365 20.1938 133.426 18.7645 134.759 17.1538H137.847C135.767 19.3938 134.349 21.0792 133.591 22.2098C135.138 23.7672 136.653 25.5485 138.135 27.5538ZM146.495 27.5538L145.887 25.6658H140.975C140.911 25.8685 140.815 26.1832 140.687 26.6098C140.559 27.0258 140.463 27.3405 140.399 27.5538H137.822C139.017 23.6605 140.329 20.1938 141.759 17.1538H145.215C146.761 20.4178 148.1 23.8845 149.231 27.5538H146.495ZM141.663 23.5698H145.183C144.596 21.8952 144.004 20.3698 143.407 18.9938C142.831 20.3165 142.249 21.8418 141.663 23.5698ZM153.303 16.9618C154.754 16.9618 155.853 17.2018 156.599 17.6818C157.357 18.1618 157.735 18.8285 157.735 19.6818C157.735 20.8125 157.127 21.6018 155.911 22.0498V22.0978C156.626 22.2365 157.186 22.5138 157.591 22.9298C157.997 23.3458 158.199 23.8472 158.199 24.4338C158.199 26.6418 156.514 27.7458 153.143 27.7458C152.098 27.7458 150.994 27.6232 149.831 27.3778V25.0418C151.047 25.3938 152.178 25.5698 153.223 25.5698C154.077 25.5698 154.685 25.4632 155.047 25.2498C155.421 25.0365 155.607 24.7112 155.607 24.2738C155.607 23.8898 155.447 23.6072 155.127 23.4258C154.807 23.2445 154.269 23.1538 153.511 23.1538H151.255V21.3778H153.191C153.917 21.3778 154.423 21.2818 154.711 21.0898C154.999 20.8978 155.143 20.6098 155.143 20.2258C155.143 19.8632 154.983 19.5912 154.663 19.4098C154.354 19.2285 153.81 19.1378 153.031 19.1378C151.954 19.1378 150.925 19.2978 149.943 19.6178V17.4098C150.914 17.1112 152.034 16.9618 153.303 16.9618ZM167.291 27.5538L166.683 25.6658H161.771C161.707 25.8685 161.611 26.1832 161.483 26.6098C161.355 27.0258 161.259 27.3405 161.195 27.5538H158.619C159.814 23.6605 161.126 20.1938 162.555 17.1538H166.011C167.558 20.4178 168.897 23.8845 170.027 27.5538H167.291ZM162.459 23.5698H165.979C165.393 21.8952 164.801 20.3698 164.203 18.9938C163.627 20.3165 163.046 21.8418 162.459 23.5698ZM178.179 19.2498H174.755V27.5538H172.275V19.2498H168.851V17.1538H178.179V19.2498ZM182.1 20.6098H184.292C185.732 20.6098 186.831 20.8872 187.588 21.4418C188.345 21.9965 188.724 22.8232 188.724 23.9218C188.724 25.0632 188.345 25.9538 187.588 26.5938C186.831 27.2338 185.716 27.5538 184.244 27.5538H179.62V17.1538H182.1V20.6098ZM182.1 25.4578H184.228C184.9 25.4578 185.385 25.3458 185.684 25.1218C185.983 24.8872 186.132 24.4978 186.132 23.9538C186.132 23.0792 185.497 22.6418 184.228 22.6418H182.1V25.4578ZM201.038 16.9618C202.488 16.9618 203.587 17.2018 204.334 17.6818C205.091 18.1618 205.47 18.8285 205.47 19.6818C205.47 20.8125 204.862 21.6018 203.646 22.0498V22.0978C204.36 22.2365 204.92 22.5138 205.326 22.9298C205.731 23.3458 205.934 23.8472 205.934 24.4338C205.934 26.6418 204.248 27.7458 200.878 27.7458C199.832 27.7458 198.728 27.6232 197.566 27.3778V25.0418C198.782 25.3938 199.912 25.5698 200.958 25.5698C201.811 25.5698 202.419 25.4632 202.782 25.2498C203.155 25.0365 203.342 24.7112 203.342 24.2738C203.342 23.8898 203.182 23.6072 202.862 23.4258C202.542 23.2445 202.003 23.1538 201.246 23.1538H198.99V21.3778H200.926C201.651 21.3778 202.158 21.2818 202.446 21.0898C202.734 20.8978 202.878 20.6098 202.878 20.2258C202.878 19.8632 202.718 19.5912 202.398 19.4098C202.088 19.2285 201.544 19.1378 200.766 19.1378C199.688 19.1378 198.659 19.2978 197.678 19.6178V17.4098C198.648 17.1112 199.768 16.9618 201.038 16.9618ZM207.776 17.1538H212.048C215.152 17.1538 216.704 18.0392 216.704 19.8098C216.704 20.3005 216.55 20.7592 216.24 21.1858C215.931 21.6125 215.472 21.9325 214.864 22.1458V22.1938C215.483 22.2898 216.022 22.5458 216.48 22.9618C216.939 23.3672 217.168 23.8845 217.168 24.5138C217.168 26.5405 215.664 27.5538 212.656 27.5538H207.776V17.1538ZM210.256 19.1538V21.3778H212.144C212.752 21.3778 213.227 21.2978 213.568 21.1378C213.92 20.9778 214.096 20.6738 214.096 20.2258C214.096 19.7885 213.926 19.5005 213.584 19.3618C213.243 19.2232 212.784 19.1538 212.208 19.1538H210.256ZM210.256 23.1538V25.5538H212.64C213.302 25.5538 213.787 25.4685 214.096 25.2978C214.416 25.1165 214.576 24.8125 214.576 24.3858C214.576 23.9058 214.395 23.5805 214.032 23.4098C213.68 23.2392 213.158 23.1538 212.464 23.1538H210.256ZM222.131 17.2818C222.781 17.0685 223.453 16.9618 224.147 16.9618C224.84 16.9618 225.507 17.0738 226.147 17.2978C226.797 17.5112 227.395 17.8258 227.939 18.2418C228.483 18.6578 228.92 19.2125 229.251 19.9058C229.581 20.5992 229.747 21.3832 229.747 22.2578C229.747 23.2178 229.592 24.0605 229.283 24.7858C228.973 25.5112 228.547 26.0818 228.003 26.4978C227.469 26.9138 226.877 27.2285 226.227 27.4418C225.576 27.6445 224.877 27.7458 224.131 27.7458C223.384 27.7458 222.685 27.6445 222.035 27.4418C221.384 27.2285 220.792 26.9138 220.259 26.4978C219.725 26.0818 219.304 25.5112 218.995 24.7858C218.685 24.0605 218.531 23.2178 218.531 22.2578C218.531 21.3832 218.696 20.5992 219.027 19.9058C219.357 19.2018 219.795 18.6418 220.339 18.2258C220.883 17.8098 221.48 17.4952 222.131 17.2818ZM226.291 20.0018C225.715 19.4472 224.995 19.1698 224.131 19.1698C223.267 19.1698 222.547 19.4472 221.971 20.0018C221.405 20.5458 221.123 21.3032 221.123 22.2738C221.123 23.3832 221.421 24.2098 222.019 24.7538C222.616 25.2978 223.325 25.5698 224.147 25.5698C224.968 25.5698 225.672 25.2978 226.259 24.7538C226.856 24.2098 227.155 23.3832 227.155 22.2738C227.155 21.3032 226.867 20.5458 226.291 20.0018ZM241.063 27.5538H238.583V23.5218H233.991V27.5538H231.511V17.1538H233.991V21.4258H238.583V17.1538H241.063V27.5538ZM246.428 17.2818C247.078 17.0685 247.75 16.9618 248.444 16.9618C249.137 16.9618 249.804 17.0738 250.444 17.2978C251.094 17.5112 251.692 17.8258 252.236 18.2418C252.78 18.6578 253.217 19.2125 253.548 19.9058C253.878 20.5992 254.044 21.3832 254.044 22.2578C254.044 23.2178 253.889 24.0605 253.58 24.7858C253.27 25.5112 252.844 26.0818 252.3 26.4978C251.766 26.9138 251.174 27.2285 250.524 27.4418C249.873 27.6445 249.174 27.7458 248.428 27.7458C247.681 27.7458 246.982 27.6445 246.332 27.4418C245.681 27.2285 245.089 26.9138 244.556 26.4978C244.022 26.0818 243.601 25.5112 243.292 24.7858C242.982 24.0605 242.828 23.2178 242.828 22.2578C242.828 21.3832 242.993 20.5992 243.324 19.9058C243.654 19.2018 244.092 18.6418 244.636 18.2258C245.18 17.8098 245.777 17.4952 246.428 17.2818ZM250.588 20.0018C250.012 19.4472 249.292 19.1698 248.428 19.1698C247.564 19.1698 246.844 19.4472 246.268 20.0018C245.702 20.5458 245.42 21.3032 245.42 22.2738C245.42 23.3832 245.718 24.2098 246.316 24.7538C246.913 25.2978 247.622 25.5698 248.444 25.5698C249.265 25.5698 249.969 25.2978 250.556 24.7538C251.153 24.2098 251.452 23.3832 251.452 22.2738C251.452 21.3032 251.164 20.5458 250.588 20.0018ZM265.792 27.5538H262.672C261.744 26.2525 260.645 24.9085 259.376 23.5218H258.288V27.5538H255.808V17.1538H258.288V21.4418H259.232C260.021 20.1938 261.082 18.7645 262.416 17.1538H265.504C263.424 19.3938 262.005 21.0792 261.248 22.2098C262.794 23.7672 264.309 25.5485 265.792 27.5538Z" fill="white"/>
<path d="M94.2553 35.6455C94.3059 35.4001 94.0462 34.8456 93.476 33.983C93.3318 33.7316 93.1216 33.3817 92.847 32.9332C92.572 32.4846 92.3241 32.0743 92.104 31.7031C91.8831 31.3315 91.6795 30.9775 91.4926 30.6411C91.4668 30.5804 91.3815 30.3979 91.2372 30.0929C91.0924 29.7882 90.9606 29.5481 90.8407 29.3719C90.7209 29.1963 90.5809 29.062 90.4207 28.9695C90.1919 28.8374 89.8119 28.8355 89.2806 28.9633C88.7491 29.0915 88.2297 29.2642 87.7223 29.4827C87.215 29.7011 86.7071 29.8804 86.1987 30.0217C85.6898 30.1629 85.3324 30.1738 85.1267 30.055C85.0234 29.9954 84.9112 29.8922 84.7897 29.7463C84.6685 29.6001 84.5794 29.4834 84.5217 29.3974C84.4651 29.3109 84.3742 29.152 84.2491 28.9191C84.1235 28.6864 84.053 28.5579 84.0368 28.5332C82.9715 26.7585 82.2018 24.9868 81.7275 23.2184C81.2539 21.4496 81.0344 19.5306 81.0698 17.4609C81.0716 17.4314 81.0685 17.2846 81.0607 17.0209C81.0528 16.7569 81.0518 16.5735 81.0581 16.4701C81.0643 16.367 81.0834 16.2216 81.1155 16.0342C81.1475 15.8468 81.1931 15.7016 81.2526 15.5985C81.3715 15.3927 81.6866 15.2235 82.1977 15.0914C82.7086 14.9595 83.2385 14.861 83.7867 14.7964C84.3353 14.7319 84.8714 14.6218 85.3957 14.467C85.92 14.312 86.2481 14.1202 86.3802 13.8914C86.4726 13.7314 86.5268 13.545 86.5425 13.333C86.5584 13.1205 86.5525 12.8467 86.5253 12.5105C86.498 12.1744 86.4804 11.9737 86.4726 11.9079C86.4661 11.523 86.4657 11.1147 86.4706 10.6828C86.4756 10.2509 86.4854 9.77196 86.499 9.24598C86.5128 8.72029 86.5197 8.31223 86.5192 8.02211C86.5813 6.99027 86.5292 6.38027 86.3627 6.19292C86.3024 6.11233 86.1921 6.0256 86.0321 5.93321C85.723 5.75474 85.2868 5.57902 84.7229 5.40625C84.159 5.23319 83.698 5.12698 83.3391 5.08786C82.6283 4.9977 81.619 5.3455 80.3111 6.13093C79.1067 6.86931 78.2005 7.76516 77.5928 8.81766C77.4146 9.12634 77.2612 9.43822 77.1327 9.75336C77.0043 10.0682 76.8859 10.4385 76.7776 10.8642C76.6691 11.2897 76.5951 11.6096 76.5556 11.8229C76.5162 12.0364 76.4502 12.4216 76.3575 12.9785C76.2647 13.5352 76.2061 13.8749 76.1809 13.9977C75.934 15.3502 75.8309 16.6254 75.8713 17.8236C75.9294 19.8097 76.2886 22.035 76.9487 24.4986C77.6089 26.962 78.4104 29.0686 79.3532 30.8181C79.9172 31.8758 80.6446 32.9287 81.5344 33.9768C81.6178 34.0704 81.8386 34.335 82.1968 34.7712C82.5555 35.2071 82.8053 35.5077 82.9462 35.673C83.0871 35.8383 83.3112 36.0785 83.6175 36.3927C83.9245 36.7075 84.212 36.9688 84.4804 37.1776C84.7495 37.3856 85.0382 37.5794 85.3469 37.7577C86.3994 38.3654 87.6324 38.688 89.0448 38.7255C90.57 38.752 91.6179 38.5484 92.1887 38.1146C92.4801 37.9018 92.826 37.579 93.2278 37.1472C93.6299 36.7159 93.9196 36.3456 94.0981 36.0366C94.1912 35.8761 94.2432 35.7462 94.2553 35.6455Z" fill="white"/>
</svg>
